<?xml version="1.0" standalone="no"?>
<!DOCTYPE svg PUBLIC "-//W3C//DTD SVG 1.1//EN" "http://www.w3.org/Graphics/SVG/1.1/DTD/svg11.dtd">
<svg viewBox="-6 -6 1036 532.40199362433" style="fill-opacity:0.5; stroke:black; stroke-width:1; fill:none" xmlns="http://www.w3.org/2000/svg" version="1.1">
<circle r="5" cx="505.997859" cy="469.487277" />
<circle r="5" cx="89.858162" cy="369.622974" />
<circle r="5" cx="640.655559" cy="362.298401" />
<circle r="5" cx="640.604553" cy="362.119753" />
<circle r="5" cx="640.746126" cy="361.941105" />
<circle r="5" cx="428.179963" cy="358.368142" />
<circle r="5" cx="434.145389" cy="352.83005" />
<circle r="5" cx="604.431657" cy="349.435736" />
<circle r="5" cx="517.794507" cy="345.505477" />
<circle r="5" cx="433.596567" cy="331.392275" />
<circle r="5" cx="106.654372" cy="330.141738" />
<circle r="5" cx="725.250636" cy="329.784442" />
<circle r="5" cx="175.349547" cy="328.355257" />
<circle r="5" cx="163.498046" cy="319.065554" />
<circle r="5" cx="111.49804" cy="303.523167" />
<circle r="5" cx="601.63141" cy="297.449131" />
<circle r="5" cx="163.330612" cy="294.769409" />
<circle r="5" cx="650.08874" cy="290.660502" />
<circle r="5" cx="712.734332" cy="289.231317" />
<circle r="5" cx="501.215701" cy="277.619189" />
<circle r="5" cx="782.469394" cy="259.575728" />
<circle r="5" cx="689.739784" cy="258.503839" />
<circle r="5" cx="239.481922" cy="224.382047" />
<circle r="5" cx="591.858422" cy="221.166381" />
<circle r="5" cx="104.540373" cy="215.270993" />
<circle r="5" cx="491.129018" cy="506.46744" />
<circle r="5" cx="474.790242" cy="491.460997" />
<circle r="5" cx="506.841669" cy="470.20187" />
<circle r="5" cx="505.291917" cy="469.129981" />
<circle r="5" cx="495.02883" cy="466.092963" />
<circle r="5" cx="121.350715" cy="374.089178" />
<circle r="5" cx="144.493566" cy="365.514068" />
<circle r="5" cx="590.31918" cy="358.725439" />
<circle r="5" cx="106.71726" cy="330.320386" />
<circle r="5" cx="725.294702" cy="329.96309" />
<circle r="5" cx="725.057043" cy="329.784442" />
<circle r="5" cx="120.186538" cy="318.886906" />
<circle r="5" cx="754.108429" cy="302.987223" />
<circle r="5" cx="100.937464" cy="301.022094" />
<circle r="5" cx="499.597381" cy="299.592909" />
<circle r="5" cx="417.470365" cy="298.878316" />
<circle r="5" cx="735.067533" cy="298.699668" />
<circle r="5" cx="102.779763" cy="296.019946" />
<circle r="5" cx="720.417203" cy="288.695373" />
<circle r="5" cx="723.806063" cy="282.621336" />
<circle r="5" cx="732.144111" cy="280.477559" />
<circle r="5" cx="732.302403" cy="280.298911" />
<circle r="5" cx="730.861514" cy="279.941615" />
<circle r="5" cx="731.252088" cy="279.941615" />
<circle r="5" cx="813.482675" cy="277.976485" />
<circle r="5" cx="605.257997" cy="264.935172" />
<circle r="5" cx="847.372271" cy="263.148691" />
<circle r="5" cx="848.228778" cy="262.434098" />
<circle r="5" cx="848.198113" cy="262.25545" />
<circle r="5" cx="847.971552" cy="262.076802" />
<circle r="5" cx="239.679229" cy="224.382047" />
<circle r="5" cx="592.055851" cy="221.166381" />
<circle r="5" cx="10.368837" cy="218.308011" />
<circle r="5" cx="10.118242" cy="218.129363" />
<circle r="5" cx="251.403901" cy="205.623994" />
<circle r="5" cx="1020.852141" cy="34.121792" />
<circle r="5" cx="485.886107" cy="491.818293" />
<circle r="5" cx="471.734156" cy="481.992646" />
<circle r="5" cx="506.238987" cy="469.129981" />
<circle r="5" cx="115.309163" cy="378.912677" />
<circle r="5" cx="95.8028" cy="377.126196" />
<circle r="5" cx="96.104585" cy="376.411603" />
<circle r="5" cx="120.784901" cy="374.625122" />
<circle r="5" cx="86.407285" cy="367.121901" />
<circle r="5" cx="97.286818" cy="357.117605" />
<circle r="5" cx="431.403265" cy="355.152476" />
<circle r="5" cx="431.676429" cy="354.79518" />
<circle r="5" cx="416.17061" cy="350.864921" />
<circle r="5" cx="425.477878" cy="348.542495" />
<circle r="5" cx="725.206593" cy="329.605794" />
<circle r="5" cx="720.800091" cy="325.854183" />
<circle r="5" cx="699.560138" cy="322.995813" />
<circle r="5" cx="158.040052" cy="320.137443" />
<circle r="5" cx="119.727044" cy="319.244203" />
<circle r="5" cx="120.125401" cy="318.708258" />
<circle r="5" cx="748.94693" cy="310.311796" />
<circle r="5" cx="417.664995" cy="298.878316" />
<circle r="5" cx="601.242052" cy="297.449131" />
<circle r="5" cx="163.720154" cy="294.769409" />
<circle r="5" cx="714.332827" cy="289.409966" />
<circle r="5" cx="712.344407" cy="289.231317" />
<circle r="5" cx="712.695513" cy="289.052669" />
<circle r="5" cx="720.260751" cy="288.874021" />
<circle r="5" cx="720.57369" cy="288.516725" />
<circle r="5" cx="724.473442" cy="288.516725" />
<circle r="5" cx="730.908033" cy="288.516725" />
<circle r="5" cx="195.122111" cy="285.479707" />
<circle r="5" cx="195.317204" cy="285.479707" />
<circle r="5" cx="832.675465" cy="284.407818" />
<circle r="5" cx="663.027513" cy="284.050522" />
<circle r="5" cx="723.648448" cy="282.799985" />
<circle r="5" cx="633.586447" cy="282.442689" />
<circle r="5" cx="633.781646" cy="282.442689" />
<circle r="5" cx="732.097035" cy="281.192152" />
<circle r="5" cx="731.215151" cy="279.762967" />
<circle r="5" cx="813.287319" cy="277.976485" />
<circle r="5" cx="654.267463" cy="277.083245" />
<circle r="5" cx="605.062178" cy="264.935172" />
<circle r="5" cx="848.424686" cy="262.434098" />
<circle r="5" cx="689.90053" cy="258.325191" />
<circle r="5" cx="16.205842" cy="247.070359" />
<circle r="5" cx="561.986189" cy="247.070359" />
<circle r="5" cx="592.08935" cy="221.345029" />
<circle r="5" cx="592.286772" cy="221.345029" />
<circle r="5" cx="592.450709" cy="221.166381" />
<circle r="5" cx="251.205878" cy="205.623994" />
<circle r="5" cx="98.147765" cy="203.480216" />
<circle r="5" cx="758.608353" cy="144.169038" />
<circle r="5" cx="483.800926" cy="509.683106" />
<circle r="5" cx="476.462845" cy="476.275906" />
<circle r="5" cx="505.98076" cy="468.951333" />
<circle r="5" cx="506.156543" cy="466.450259" />
<circle r="5" cx="100.45429" cy="378.734029" />
<circle r="5" cx="120.592741" cy="374.625122" />
<circle r="5" cx="123.290263" cy="371.588104" />
<circle r="5" cx="92.902056" cy="371.052159" />
<circle r="5" cx="144.941051" cy="370.873511" />
<circle r="5" cx="86.769345" cy="369.08703" />
<circle r="5" cx="141.492061" cy="366.764604" />
<circle r="5" cx="88.376761" cy="362.655697" />
<circle r="5" cx="390.977749" cy="360.690568" />
<circle r="5" cx="618.974124" cy="358.546791" />
<circle r="5" cx="625.564618" cy="358.010846" />
<circle r="5" cx="126.582355" cy="357.65355" />
<circle r="5" cx="132.297803" cy="357.474902" />
<circle r="5" cx="594.02639" cy="353.544643" />
<circle r="5" cx="434.089555" cy="352.651402" />
<circle r="5" cx="435.053813" cy="352.651402" />
<circle r="5" cx="515.472892" cy="352.651402" />
<circle r="5" cx="439.208806" cy="350.507625" />
<circle r="5" cx="422.358472" cy="346.577366" />
<circle r="5" cx="420.095154" cy="344.25494" />
<circle r="5" cx="650.681661" cy="344.25494" />
<circle r="5" cx="142.62317" cy="338.359552" />
<circle r="5" cx="646.110273" cy="330.677683" />
<circle r="5" cx="438.945722" cy="328.533905" />
<circle r="5" cx="534.364303" cy="300.843445" />
<circle r="5" cx="707.946965" cy="300.128853" />
<circle r="5" cx="610.307744" cy="295.484002" />
<circle r="5" cx="573.187716" cy="292.625632" />
<circle r="5" cx="712.890483" cy="289.052669" />
<circle r="5" cx="730.632661" cy="289.052669" />
<circle r="5" cx="712.851693" cy="288.874021" />
<circle r="5" cx="732.339379" cy="280.477559" />
<circle r="5" cx="731.410445" cy="279.762967" />
<circle r="5" cx="732.788746" cy="278.869726" />
<circle r="5" cx="734.840008" cy="277.440541" />
<circle r="5" cx="735.035383" cy="277.440541" />
<circle r="5" cx="671.26947" cy="276.190004" />
<circle r="5" cx="0" cy="254.752229" />
<circle r="5" cx="841.699925" cy="247.9636" />
<circle r="5" cx="562.379119" cy="247.070359" />
<circle r="5" cx="562.341152" cy="246.891711" />
<circle r="5" cx="514.876982" cy="234.56499" />
<circle r="5" cx="515.036023" cy="234.386342" />
<circle r="5" cx="514.998159" cy="234.207694" />
<circle r="5" cx="10.1713" cy="218.308011" />
<circle r="5" cx="253.316449" cy="199.549957" />
<circle r="5" cx="759.026145" cy="144.347686" />
<circle r="5" cx="758.808836" cy="144.169038" />
<circle r="5" cx="759.009318" cy="144.169038" />
<circle r="5" cx="742.151328" cy="143.99039" />
<circle r="5" cx="938.881427" cy="105.402395" />
<circle r="5" cx="468.123785" cy="490.389108" />
<circle r="5" cx="470.457029" cy="481.63535" />
<circle r="5" cx="497.497324" cy="471.988351" />
<circle r="5" cx="506.104056" cy="466.807556" />
<circle r="5" cx="515.56267" cy="466.271611" />
<circle r="5" cx="100.71505" cy="378.912677" />
<circle r="5" cx="96.049685" cy="376.7689" />
<circle r="5" cx="95.91248" cy="376.411603" />
<circle r="5" cx="141.596301" cy="374.267826" />
<circle r="5" cx="141.788472" cy="374.267826" />
<circle r="5" cx="92.393316" cy="371.230808" />
<circle r="5" cx="92.585582" cy="371.230808" />
<circle r="5" cx="155.510013" cy="370.337567" />
<circle r="5" cx="541.498426" cy="369.265678" />
<circle r="5" cx="86.214891" cy="367.121901" />
<circle r="5" cx="616.068079" cy="367.121901" />
<circle r="5" cx="571.271719" cy="366.585956" />
<circle r="5" cx="593.519266" cy="365.692715" />
<circle r="5" cx="158.730537" cy="364.978123" />
<circle r="5" cx="153.144963" cy="364.442179" />
<circle r="5" cx="409.408358" cy="362.298401" />
<circle r="5" cx="421.731273" cy="362.298401" />
<circle r="5" cx="135.853295" cy="360.869216" />
<circle r="5" cx="618.78146" cy="358.546791" />
<circle r="5" cx="97.413241" cy="356.938958" />
<circle r="5" cx="144.560188" cy="355.68842" />
<circle r="5" cx="623.821851" cy="353.901939" />
<circle r="5" cx="434.338235" cy="352.83005" />
<circle r="5" cx="604.265999" cy="351.579514" />
<circle r="5" cx="604.624612" cy="349.435736" />
<circle r="5" cx="517.670962" cy="348.363847" />
<circle r="5" cx="616.480602" cy="339.252793" />
<circle r="5" cx="621.761065" cy="332.285516" />
<circle r="5" cx="646.303836" cy="330.677683" />
<circle r="5" cx="106.847953" cy="330.141738" />
<circle r="5" cx="174.308979" cy="328.712553" />
<circle r="5" cx="439.332989" cy="328.533905" />
<circle r="5" cx="175.288977" cy="328.176609" />
<circle r="5" cx="723.097994" cy="321.745276" />
<circle r="5" cx="120.237347" cy="319.601499" />
<circle r="5" cx="120.247694" cy="319.065554" />
<circle r="5" cx="495.46309" cy="308.882611" />
<circle r="5" cx="747.636501" cy="307.09613" />
<circle r="5" cx="747.824482" cy="306.202889" />
<circle r="5" cx="747.784409" cy="306.024241" />
<circle r="5" cx="705.847071" cy="300.307501" />
<circle r="5" cx="601.026841" cy="298.163723" />
<circle r="5" cx="601.177931" cy="297.985076" />
<circle r="5" cx="102.974491" cy="296.019946" />
<circle r="5" cx="48.986815" cy="295.305354" />
<circle r="5" cx="821.499358" cy="294.948057" />
<circle r="5" cx="712.500544" cy="289.052669" />
<circle r="5" cx="712.656718" cy="288.874021" />
<circle r="5" cx="724.66843" cy="288.516725" />
<circle r="5" cx="731.10302" cy="288.516725" />
<circle r="5" cx="724.435096" cy="288.338077" />
<circle r="5" cx="724.63009" cy="288.338077" />
<circle r="5" cx="720.886773" cy="288.159429" />
<circle r="5" cx="832.801997" cy="284.050522" />
<circle r="5" cx="723.453261" cy="282.799985" />
<circle r="5" cx="723.61087" cy="282.621336" />
<circle r="5" cx="721.396118" cy="281.3708" />
<circle r="5" cx="732.181118" cy="280.656207" />
<circle r="5" cx="731.093767" cy="280.120263" />
<circle r="5" cx="731.447375" cy="279.941615" />
<circle r="5" cx="826.127645" cy="279.762967" />
<circle r="5" cx="653.21245" cy="276.725948" />
<circle r="5" cx="724.20397" cy="275.118115" />
<circle r="5" cx="615.671184" cy="270.473264" />
<circle r="5" cx="736.72532" cy="270.294616" />
<circle r="5" cx="606.784201" cy="266.543005" />
<circle r="5" cx="616.103129" cy="266.185709" />
<circle r="5" cx="616.298903" cy="266.185709" />
<circle r="5" cx="848.394028" cy="262.25545" />
<circle r="5" cx="848.589943" cy="262.25545" />
<circle r="5" cx="782.240963" cy="259.39708" />
<circle r="5" cx="689.704474" cy="258.325191" />
<circle r="5" cx="351.071018" cy="249.750081" />
<circle r="5" cx="15.812912" cy="247.070359" />
<circle r="5" cx="562.182654" cy="247.070359" />
<circle r="5" cx="239.817133" cy="224.917992" />
<circle r="5" cx="239.968439" cy="224.739343" />
<circle r="5" cx="673.654385" cy="216.878826" />
<circle r="5" cx="867.882216" cy="159.711425" />
<circle r="5" cx="939.08356" cy="105.402395" />
<circle r="5" cx="475.269172" cy="492.175589" />
<circle r="5" cx="511.574298" cy="485.208312" />
<circle r="5" cx="470.646106" cy="481.63535" />
<circle r="5" cx="470.835183" cy="481.63535" />
<circle r="5" cx="470.574782" cy="481.456702" />
<circle r="5" cx="470.763864" cy="481.456702" />
<circle r="5" cx="474.14414" cy="476.633202" />
<circle r="5" cx="497.106813" cy="473.417536" />
<circle r="5" cx="509.321036" cy="470.737814" />
<circle r="5" cx="494.273015" cy="470.023222" />
<circle r="5" cx="508.569661" cy="410.712043" />
<circle r="5" cx="113.538988" cy="379.805918" />
<circle r="5" cx="95.871479" cy="377.304844" />
<circle r="5" cx="96.063557" cy="377.304844" />
<circle r="5" cx="111.237671" cy="377.304844" />
<circle r="5" cx="95.857591" cy="376.7689" />
<circle r="5" cx="95.981073" cy="376.590251" />
<circle r="5" cx="141.663328" cy="374.446474" />
<circle r="5" cx="139.7997" cy="374.089178" />
<circle r="5" cx="95.710262" cy="373.374585" />
<circle r="5" cx="571.820316" cy="371.588104" />
<circle r="5" cx="87.57437" cy="370.694863" />
<circle r="5" cx="97.166165" cy="369.622974" />
<circle r="5" cx="129.274849" cy="369.08703" />
<circle r="5" cx="86.757784" cy="368.551086" />
<circle r="5" cx="140.98101" cy="366.943252" />
<circle r="5" cx="134.366542" cy="366.22866" />
<circle r="5" cx="134.300269" cy="366.050012" />
<circle r="5" cx="143.344367" cy="366.050012" />
<circle r="5" cx="593.711706" cy="365.692715" />
<circle r="5" cx="143.39952" cy="365.156771" />
<circle r="5" cx="158.603516" cy="365.156771" />
<circle r="5" cx="158.988427" cy="365.156771" />
<circle r="5" cx="144.103482" cy="364.978123" />
<circle r="5" cx="152.698649" cy="364.799475" />
<circle r="5" cx="574.532749" cy="364.620827" />
<circle r="5" cx="152.628974" cy="364.084882" />
<circle r="5" cx="586.813536" cy="363.191642" />
<circle r="5" cx="586.568313" cy="363.012994" />
<circle r="5" cx="564.161736" cy="362.119753" />
<circle r="5" cx="564.108516" cy="361.941105" />
<circle r="5" cx="564.247882" cy="361.762457" />
<circle r="5" cx="640.502608" cy="361.762457" />
<circle r="5" cx="641.029374" cy="361.583809" />
<circle r="5" cx="514.595547" cy="361.226513" />
<circle r="5" cx="157.808626" cy="360.869216" />
<circle r="5" cx="157.551074" cy="360.690568" />
<circle r="5" cx="157.74367" cy="360.690568" />
<circle r="5" cx="391.170345" cy="360.690568" />
<circle r="5" cx="392.133327" cy="360.690568" />
<circle r="5" cx="87.814859" cy="359.618679" />
<circle r="5" cx="590.178552" cy="358.904087" />
<circle r="5" cx="626.538961" cy="358.725439" />
<circle r="5" cx="625.179256" cy="358.010846" />
<circle r="5" cx="625.371937" cy="358.010846" />
<circle r="5" cx="144.689711" cy="356.045717" />
<circle r="5" cx="144.752943" cy="355.68842" />
<circle r="5" cx="624.014663" cy="353.901939" />
<circle r="5" cx="594.077614" cy="353.723291" />
<circle r="5" cx="594.219213" cy="353.544643" />
<circle r="5" cx="634.076569" cy="352.651402" />
<circle r="5" cx="515.612343" cy="352.472754" />
<circle r="5" cx="634.219528" cy="352.472754" />
<circle r="5" cx="628.376717" cy="351.579514" />
<circle r="5" cx="417.135153" cy="350.864921" />
<circle r="5" cx="434.248441" cy="350.686273" />
<circle r="5" cx="434.441356" cy="350.686273" />
<circle r="5" cx="604.674973" cy="349.614384" />
<circle r="5" cx="595.555757" cy="349.435736" />
<circle r="5" cx="604.238703" cy="349.435736" />
<circle r="5" cx="604.574273" cy="349.257088" />
<circle r="5" cx="609.034127" cy="346.577366" />
<circle r="5" cx="650.48854" cy="344.25494" />
<circle r="5" cx="624.604264" cy="334.965238" />
<circle r="5" cx="624.993548" cy="334.250645" />
<circle r="5" cx="625.186995" cy="334.250645" />
<circle r="5" cx="625.913119" cy="334.071997" />
<circle r="5" cx="625.24066" cy="333.000108" />
<circle r="5" cx="61.161271" cy="332.285516" />
<circle r="5" cx="621.567555" cy="332.285516" />
<circle r="5" cx="621.037982" cy="331.749572" />
<circle r="5" cx="105.353123" cy="331.392275" />
<circle r="5" cx="106.644889" cy="331.213627" />
<circle r="5" cx="106.136535" cy="330.320386" />
<circle r="5" cx="646.210737" cy="330.320386" />
<circle r="5" cx="646.597887" cy="330.320386" />
<circle r="5" cx="624.527726" cy="325.139591" />
<circle r="5" cx="637.038789" cy="324.067702" />
<circle r="5" cx="725.747437" cy="323.889054" />
<circle r="5" cx="750.023136" cy="309.061259" />
<circle r="5" cx="495.85167" cy="308.882611" />
<circle r="5" cx="495.803388" cy="308.703963" />
<circle r="5" cx="747.482384" cy="307.274778" />
<circle r="5" cx="716.907433" cy="305.309649" />
<circle r="5" cx="453.820365" cy="305.131" />
<circle r="5" cx="503.301602" cy="304.773704" />
<circle r="5" cx="111.902753" cy="302.987223" />
<circle r="5" cx="735.301614" cy="298.878316" />
<circle r="5" cx="601.436731" cy="297.449131" />
<circle r="5" cx="601.393269" cy="297.270483" />
<circle r="5" cx="510.253985" cy="295.66265" />
<circle r="5" cx="610.112997" cy="295.484002" />
<circle r="5" cx="509.748105" cy="293.697521" />
<circle r="5" cx="509.897062" cy="293.518872" />
<circle r="5" cx="757.549292" cy="292.80428" />
<circle r="5" cx="509.06256" cy="291.017799" />
<circle r="5" cx="724.511812" cy="288.695373" />
<circle r="5" cx="724.201773" cy="288.159429" />
<circle r="5" cx="724.786773" cy="288.159429" />
<circle r="5" cx="195.512297" cy="285.479707" />
<circle r="5" cx="735.335267" cy="285.479707" />
<circle r="5" cx="723.5285" cy="283.157281" />
<circle r="5" cx="723.843635" cy="282.799985" />
<circle r="5" cx="731.901792" cy="281.192152" />
<circle r="5" cx="729.71696" cy="281.013503" />
<circle r="5" cx="729.642713" cy="280.656207" />
<circle r="5" cx="732.376379" cy="280.656207" />
<circle r="5" cx="502.313532" cy="280.477559" />
<circle r="5" cx="730.935482" cy="280.298911" />
<circle r="5" cx="731.373538" cy="279.584318" />
<circle r="5" cx="731.568838" cy="279.584318" />
<circle r="5" cx="733.105969" cy="278.51243" />
<circle r="5" cx="488.081567" cy="277.440541" />
<circle r="5" cx="488.037149" cy="277.261893" />
<circle r="5" cx="587.085" cy="276.368652" />
<circle r="5" cx="730.84281" cy="273.152986" />
<circle r="5" cx="731.038337" cy="273.152986" />
<circle r="5" cx="805.265822" cy="271.723801" />
<circle r="5" cx="622.439898" cy="271.009208" />
<circle r="5" cx="622.831102" cy="271.009208" />
<circle r="5" cx="804.936796" cy="271.009208" />
<circle r="5" cx="615.710574" cy="270.651912" />
<circle r="5" cx="736.689907" cy="270.115968" />
<circle r="5" cx="606.58844" cy="266.543005" />
<circle r="5" cx="793.309691" cy="265.292468" />
<circle r="5" cx="332.395994" cy="257.967895" />
<circle r="5" cx="812.547522" cy="256.717358" />
<circle r="5" cx="812.320384" cy="256.53871" />
<circle r="5" cx="351.207158" cy="250.286026" />
<circle r="5" cx="350.965403" cy="250.107378" />
<circle r="5" cx="349.651064" cy="249.571433" />
<circle r="5" cx="514.839089" cy="234.386342" />
<circle r="5" cx="201.842341" cy="229.741491" />
<circle r="5" cx="239.133275" cy="224.560695" />
<circle r="5" cx="239.725177" cy="224.560695" />
<circle r="5" cx="742.41877" cy="224.382047" />
<circle r="5" cx="97.94966" cy="203.480216" />
<circle r="5" cx="1010.661309" cy="40.731773" />
<circle r="5" cx="1012.584957" cy="39.12394" />
<circle r="5" cx="1008.730942" cy="38.230699" />
<circle r="5" cx="497.531063" cy="520.401994" />
<circle r="5" cx="483.98927" cy="509.683106" />
<circle r="5" cx="473.857317" cy="486.816145" />
<circle r="5" cx="466.029585" cy="485.208312" />
<circle r="5" cx="491.164219" cy="485.208312" />
<circle r="5" cx="466.146674" cy="485.029665" />
<circle r="5" cx="470.339306" cy="481.813998" />
<circle r="5" cx="471.402415" cy="481.63535" />
<circle r="5" cx="473.126215" cy="480.742109" />
<circle r="5" cx="482.465739" cy="478.062388" />
<circle r="5" cx="486.994632" cy="471.273758" />
<circle r="5" cx="509.510406" cy="470.737814" />
<circle r="5" cx="97.120916" cy="378.555381" />
<circle r="5" cx="136.77383" cy="373.195937" />
<circle r="5" cx="137.341708" cy="372.659992" />
<circle r="5" cx="588.716091" cy="370.873511" />
<circle r="5" cx="588.470141" cy="370.694863" />
<circle r="5" cx="588.662424" cy="370.694863" />
<circle r="5" cx="118.714732" cy="370.158919" />
<circle r="5" cx="89.733832" cy="369.801623" />
<circle r="5" cx="97.030685" cy="369.265678" />
<circle r="5" cx="637.401997" cy="368.372437" />
<circle r="5" cx="134.897407" cy="367.657845" />
<circle r="5" cx="571.656541" cy="366.585956" />
<circle r="5" cx="139.88067" cy="366.050012" />
<circle r="5" cx="143.536795" cy="366.050012" />
<circle r="5" cx="593.572126" cy="365.871364" />
<circle r="5" cx="593.764559" cy="365.871364" />
<circle r="5" cx="593.904144" cy="365.692715" />
<circle r="5" cx="152.760007" cy="364.442179" />
<circle r="5" cx="586.673745" cy="363.37029" />
<circle r="5" cx="127.274464" cy="363.191642" />
<circle r="5" cx="641.323796" cy="361.941105" />
<circle r="5" cx="641.272858" cy="361.762457" />
<circle r="5" cx="135.918913" cy="361.047864" />
<circle r="5" cx="131.734531" cy="359.618679" />
<circle r="5" cx="131.410763" cy="359.261383" />
<circle r="5" cx="87.614332" cy="359.082735" />
<circle r="5" cx="625.292376" cy="359.082735" />
<circle r="5" cx="625.485023" cy="359.082735" />
<circle r="5" cx="590.371205" cy="358.904087" />
<circle r="5" cx="590.126522" cy="358.725439" />
<circle r="5" cx="382.593824" cy="358.010846" />
<circle r="5" cx="587.910304" cy="356.403013" />
<circle r="5" cx="622.216609" cy="356.403013" />
<circle r="5" cx="622.409341" cy="356.403013" />
<circle r="5" cx="138.907409" cy="356.045717" />
<circle r="5" cx="139.292896" cy="356.045717" />
<circle r="5" cx="624.124543" cy="354.973828" />
<circle r="5" cx="432.061995" cy="354.79518" />
<circle r="5" cx="593.987324" cy="354.080587" />
<circle r="5" cx="594.18013" cy="354.080587" />
<circle r="5" cx="623.872243" cy="354.080587" />
<circle r="5" cx="593.936049" cy="353.901939" />
<circle r="5" cx="593.884797" cy="353.723291" />
<circle r="5" cx="634.02667" cy="352.472754" />
<circle r="5" cx="515.558965" cy="352.294106" />
<circle r="5" cx="604.123778" cy="351.758162" />
<circle r="5" cx="607.737942" cy="351.579514" />
<circle r="5" cx="143.590559" cy="351.400865" />
<circle r="5" cx="131.373782" cy="351.222217" />
<circle r="5" cx="131.502088" cy="351.043569" />
<circle r="5" cx="415.784793" cy="350.864921" />
<circle r="5" cx="415.977702" cy="350.864921" />
<circle r="5" cx="434.304019" cy="350.864921" />
<circle r="5" cx="521.672725" cy="350.150328" />
<circle r="5" cx="595.698109" cy="349.257088" />
<circle r="5" cx="595.891069" cy="349.257088" />
<circle r="5" cx="435.512995" cy="348.542495" />
<circle r="5" cx="422.138695" cy="347.11331" />
<circle r="5" cx="422.083236" cy="346.934662" />
<circle r="5" cx="608.841081" cy="346.577366" />
<circle r="5" cx="56.619225" cy="341.575218" />
<circle r="5" cx="56.812432" cy="341.575218" />
<circle r="5" cx="611.704885" cy="341.575218" />
<circle r="5" cx="56.553522" cy="341.39657" />
<circle r="5" cx="614.020725" cy="340.860626" />
<circle r="5" cx="660.352022" cy="339.967385" />
<circle r="5" cx="617.687157" cy="337.287663" />
<circle r="5" cx="625.04126" cy="334.429294" />
<circle r="5" cx="624.026318" cy="334.250645" />
<circle r="5" cx="105.614138" cy="331.034979" />
<circle r="5" cx="646.063706" cy="330.499035" />
<circle r="5" cx="725.444228" cy="329.784442" />
<circle r="5" cx="634.602501" cy="329.605794" />
<circle r="5" cx="174.696234" cy="328.712553" />
<circle r="5" cx="174.441968" cy="328.533905" />
<circle r="5" cx="540.005461" cy="324.960943" />
<circle r="5" cx="725.079639" cy="323.531758" />
<circle r="5" cx="725.036455" cy="323.353109" />
<circle r="5" cx="717.368658" cy="322.102573" />
<circle r="5" cx="717.325436" cy="321.923925" />
<circle r="5" cx="158.488005" cy="320.316091" />
<circle r="5" cx="743.550464" cy="316.385832" />
<circle r="5" cx="108.374004" cy="311.562333" />
<circle r="5" cx="496.045959" cy="308.882611" />
<circle r="5" cx="495.997684" cy="308.703963" />
<circle r="5" cx="40.069401" cy="307.274778" />
<circle r="5" cx="703.658643" cy="306.024241" />
<circle r="5" cx="716.600533" cy="305.666945" />
<circle r="5" cx="454.063901" cy="305.309649" />
<circle r="5" cx="709.396457" cy="304.773704" />
<circle r="5" cx="754.14788" cy="303.165871" />
<circle r="5" cx="754.342364" cy="303.165871" />
<circle r="5" cx="707.339654" cy="301.736686" />
<circle r="5" cx="705.457909" cy="300.307501" />
<circle r="5" cx="718.254186" cy="299.235612" />
<circle r="5" cx="717.819703" cy="298.163723" />
<circle r="5" cx="601.372592" cy="297.985076" />
<circle r="5" cx="510.356561" cy="295.305354" />
<circle r="5" cx="819.624251" cy="295.305354" />
<circle r="5" cx="821.340799" cy="295.126705" />
<circle r="5" cx="729.883384" cy="291.911039" />
<circle r="5" cx="720.730213" cy="288.338077" />
<circle r="5" cx="735.530361" cy="285.479707" />
<circle r="5" cx="737.211193" cy="285.122411" />
<circle r="5" cx="723.138152" cy="283.157281" />
<circle r="5" cx="725.089895" cy="283.157281" />
<circle r="5" cx="723.100508" cy="282.978633" />
<circle r="5" cx="723.295688" cy="282.978633" />
<circle r="5" cx="723.062888" cy="282.799985" />
<circle r="5" cx="724.038822" cy="282.799985" />
<circle r="5" cx="633.431689" cy="282.621336" />
<circle r="5" cx="731.418591" cy="282.621336" />
<circle r="5" cx="723.573316" cy="282.442689" />
<circle r="5" cx="723.498278" cy="282.085392" />
<circle r="5" cx="795.141003" cy="282.085392" />
<circle r="5" cx="710.034568" cy="281.192152" />
<circle r="5" cx="732.487521" cy="281.192152" />
<circle r="5" cx="731.437125" cy="280.834855" />
<circle r="5" cx="731.204808" cy="280.656207" />
<circle r="5" cx="731.019858" cy="279.762967" />
<circle r="5" cx="732.191617" cy="279.762967" />
<circle r="5" cx="731.764137" cy="279.584318" />
<circle r="5" cx="731.959436" cy="279.584318" />
<circle r="5" cx="826.059941" cy="279.40567" />
<circle r="5" cx="733.020826" cy="279.048374" />
<circle r="5" cx="733.37472" cy="278.869726" />
<circle r="5" cx="349.707298" cy="277.261893" />
<circle r="5" cx="348.681509" cy="277.083245" />
<circle r="5" cx="653.6813" cy="277.083245" />
<circle r="5" cx="724.045035" cy="275.296763" />
<circle r="5" cx="740.60242" cy="274.046226" />
<circle r="5" cx="636.914464" cy="271.009208" />
<circle r="5" cx="805.132398" cy="271.009208" />
<circle r="5" cx="615.749986" cy="270.83056" />
<circle r="5" cx="736.494273" cy="270.115968" />
<circle r="5" cx="346.30775" cy="269.044079" />
<circle r="5" cx="746.604679" cy="267.793542" />
<circle r="5" cx="607.567776" cy="265.649765" />
<circle r="5" cx="184.052954" cy="256.896006" />
<circle r="5" cx="349.81091" cy="254.037636" />
<circle r="5" cx="792.659904" cy="254.037636" />
<circle r="5" cx="31.020225" cy="251.715211" />
<circle r="5" cx="296.229786" cy="250.286026" />
<circle r="5" cx="753.709066" cy="242.425508" />
<circle r="5" cx="754.040499" cy="242.068212" />
<circle r="5" cx="511.65745" cy="239.745786" />
<circle r="5" cx="801.441922" cy="238.495249" />
<circle r="5" cx="753.2912" cy="236.53012" />
<circle r="5" cx="514.801219" cy="234.207694" />
<circle r="5" cx="819.695994" cy="233.135806" />
<circle r="5" cx="850.447206" cy="167.929239" />
<circle r="5" cx="161.652474" cy="162.391147" />
<circle r="5" cx="741.715541" cy="143.633094" />
<circle r="5" cx="1010.86637" cy="40.731773" />
<circle r="5" cx="1011.071431" cy="40.731773" />
<circle r="5" cx="1013.262871" cy="37.873403" />
<circle r="5" cx="1017.703633" cy="35.372329" />
<circle r="5" cx="477.121091" cy="500.393403" />
<circle r="5" cx="468.152607" cy="490.925053" />
<circle r="5" cx="491.04653" cy="485.386961" />
<circle r="5" cx="465.957687" cy="485.029665" />
<circle r="5" cx="473.600095" cy="481.456702" />
<circle r="5" cx="484.594817" cy="477.705091" />
<circle r="5" cx="474.262762" cy="476.454554" />
<circle r="5" cx="497.415822" cy="473.238888" />
<circle r="5" cx="498.5779" cy="470.380518" />
<circle r="5" cx="113.922988" cy="379.805918" />
<circle r="5" cx="97.519417" cy="379.091325" />
<circle r="5" cx="116.640648" cy="378.376733" />
<circle r="5" cx="96.29669" cy="376.411603" />
<circle r="5" cx="149.934794" cy="374.982418" />
<circle r="5" cx="93.924894" cy="373.731881" />
<circle r="5" cx="154.841066" cy="373.195937" />
<circle r="5" cx="572.150587" cy="371.409456" />
<circle r="5" cx="91.624253" cy="371.230808" />
<circle r="5" cx="591.984797" cy="370.873511" />
<circle r="5" cx="139.106066" cy="370.694863" />
<circle r="5" cx="588.854706" cy="370.694863" />
<circle r="5" cx="92.505707" cy="370.516215" />
<circle r="5" cx="156.086894" cy="370.337567" />
<circle r="5" cx="96.906094" cy="369.444326" />
<circle r="5" cx="141.047192" cy="367.121901" />
<circle r="5" cx="133.981697" cy="366.22866" />
<circle r="5" cx="144.235222" cy="365.335419" />
<circle r="5" cx="144.361798" cy="365.156771" />
<circle r="5" cx="144.554254" cy="365.156771" />
<circle r="5" cx="152.379316" cy="364.978123" />
<circle r="5" cx="153.149161" cy="364.978123" />
<circle r="5" cx="144.03764" cy="364.799475" />
<circle r="5" cx="144.230107" cy="364.799475" />
<circle r="5" cx="144.16429" cy="364.620827" />
<circle r="5" cx="152.952485" cy="364.442179" />
<circle r="5" cx="152.436485" cy="364.084882" />
<circle r="5" cx="151.789604" cy="363.37029" />
<circle r="5" cx="480.792259" cy="363.37029" />
<circle r="5" cx="628.435445" cy="362.655697" />
<circle r="5" cx="564.354287" cy="362.119753" />
<circle r="5" cx="640.310046" cy="361.762457" />
<circle r="5" cx="640.695171" cy="361.762457" />
<circle r="5" cx="640.45167" cy="361.583809" />
<circle r="5" cx="136.045885" cy="360.869216" />
<circle r="5" cx="157.616036" cy="360.869216" />
<circle r="5" cx="585.307381" cy="360.690568" />
<circle r="5" cx="87.948637" cy="359.975976" />
<circle r="5" cx="131.800123" cy="359.797327" />
<circle r="5" cx="130.898415" cy="359.440031" />
<circle r="5" cx="131.345223" cy="359.082735" />
<circle r="5" cx="127.422528" cy="358.368142" />
<circle r="5" cx="127.615198" cy="358.368142" />
<circle r="5" cx="129.541895" cy="358.368142" />
<circle r="5" cx="129.734565" cy="358.368142" />
<circle r="5" cx="127.356976" cy="358.189494" />
<circle r="5" cx="147.391254" cy="357.117605" />
<circle r="5" cx="139.357846" cy="356.224365" />
<circle r="5" cx="139.678383" cy="356.045717" />
<circle r="5" cx="140.834844" cy="356.045717" />
<circle r="5" cx="144.432191" cy="355.867069" />
<circle r="5" cx="592.303419" cy="354.259236" />
<circle r="5" cx="434.344013" cy="354.080587" />
<circle r="5" cx="623.629039" cy="353.901939" />
<circle r="5" cx="578.600549" cy="353.544643" />
<circle r="5" cx="593.833567" cy="353.544643" />
<circle r="5" cx="434.723927" cy="352.83005" />
<circle r="5" cx="434.66811" cy="352.651402" />
<circle r="5" cx="607.545057" cy="351.579514" />
<circle r="5" cx="133.238214" cy="351.043569" />
<circle r="5" cx="417.328062" cy="350.864921" />
<circle r="5" cx="434.055527" cy="350.686273" />
<circle r="5" cx="435.430576" cy="348.899792" />
<circle r="5" cx="435.568261" cy="348.721144" />
<circle r="5" cx="425.229346" cy="348.363847" />
<circle r="5" cx="56.614431" cy="347.827903" />
<circle r="5" cx="606.667679" cy="346.398718" />
<circle r="5" cx="609.177354" cy="346.398718" />
<circle r="5" cx="442.526935" cy="343.718996" />
<circle r="5" cx="442.665662" cy="343.540348" />
<circle r="5" cx="448.243246" cy="342.825755" />
<circle r="5" cx="594.678868" cy="337.287663" />
<circle r="5" cx="594.629857" cy="337.109015" />
<circle r="5" cx="624.508691" cy="334.607941" />
<circle r="5" cx="67.225007" cy="331.928219" />
<circle r="5" cx="66.709416" cy="331.570923" />
<circle r="5" cx="105.416196" cy="331.570923" />
<circle r="5" cx="590.801142" cy="329.427146" />
<circle r="5" cx="175.422078" cy="327.997961" />
<circle r="5" cx="109.821669" cy="324.24635" />
<circle r="5" cx="725.122845" cy="323.710406" />
<circle r="5" cx="724.993296" cy="323.174462" />
<circle r="5" cx="158.2941" cy="320.316091" />
<circle r="5" cx="747.590023" cy="306.024241" />
<circle r="5" cx="100.802099" cy="303.523167" />
<circle r="5" cx="646.567127" cy="299.771557" />
<circle r="5" cx="603.147653" cy="298.878316" />
<circle r="5" cx="717.859622" cy="298.342372" />
<circle r="5" cx="718.014358" cy="298.163723" />
<circle r="5" cx="600.788609" cy="297.985076" />
<circle r="5" cx="821.218535" cy="295.484002" />
<circle r="5" cx="724.278454" cy="288.516725" />
<circle r="5" cx="724.240102" cy="288.338077" />
<circle r="5" cx="729.390521" cy="287.802132" />
<circle r="5" cx="735.29769" cy="285.301058" />
<circle r="5" cx="737.053585" cy="285.301058" />
<circle r="5" cx="737.016087" cy="285.122411" />
<circle r="5" cx="369.386269" cy="284.22917" />
<circle r="5" cx="832.836284" cy="284.22917" />
<circle r="5" cx="723.566156" cy="283.335929" />
<circle r="5" cx="725.1275" cy="283.335929" />
<circle r="5" cx="723.490869" cy="282.978633" />
<circle r="5" cx="723.258074" cy="282.799985" />
<circle r="5" cx="633.626882" cy="282.621336" />
<circle r="5" cx="723.220484" cy="282.621336" />
<circle r="5" cx="723.415677" cy="282.621336" />
<circle r="5" cx="723.535785" cy="282.26404" />
<circle r="5" cx="721.238363" cy="281.549448" />
<circle r="5" cx="709.681909" cy="281.3708" />
<circle r="5" cx="709.877146" cy="281.3708" />
<circle r="5" cx="710.072383" cy="281.3708" />
<circle r="5" cx="709.839325" cy="281.192152" />
<circle r="5" cx="710.425054" cy="281.192152" />
<circle r="5" cx="731.706549" cy="281.192152" />
<circle r="5" cx="730.070336" cy="280.834855" />
<circle r="5" cx="731.046614" cy="280.834855" />
<circle r="5" cx="731.241869" cy="280.834855" />
<circle r="5" cx="732.497678" cy="280.298911" />
<circle r="5" cx="732.656012" cy="280.120263" />
<circle r="5" cx="730.824565" cy="279.762967" />
<circle r="5" cx="730.982939" cy="279.584318" />
<circle r="5" cx="731.178239" cy="279.584318" />
<circle r="5" cx="732.350035" cy="279.584318" />
<circle r="5" cx="733.131233" cy="279.584318" />
<circle r="5" cx="731.141349" cy="279.40567" />
<circle r="5" cx="733.533332" cy="278.691078" />
<circle r="5" cx="347.656725" cy="278.333781" />
<circle r="5" cx="813.448659" cy="277.797837" />
<circle r="5" cx="501.41107" cy="277.619189" />
<circle r="5" cx="653.72036" cy="277.261893" />
<circle r="5" cx="352.736624" cy="276.190004" />
<circle r="5" cx="729.249518" cy="274.939467" />
<circle r="5" cx="729.444981" cy="274.939467" />
<circle r="5" cx="729.799623" cy="274.760819" />
<circle r="5" cx="729.567886" cy="274.582171" />
<circle r="5" cx="804.908097" cy="271.902449" />
<circle r="5" cx="805.103668" cy="271.902449" />
<circle r="5" cx="805.070245" cy="271.723801" />
<circle r="5" cx="804.349989" cy="271.009208" />
<circle r="5" cx="3.255222" cy="262.970043" />
<circle r="5" cx="6.940087" cy="262.25545" />
<circle r="5" cx="689.865251" cy="258.146543" />
<circle r="5" cx="332.592063" cy="257.967895" />
<circle r="5" cx="792.495016" cy="254.216284" />
<circle r="5" cx="562.144681" cy="246.891711" />
<circle r="5" cx="753.094346" cy="236.53012" />
<circle r="5" cx="819.75088" cy="233.493102" />
<circle r="5" cx="762.995192" cy="233.314453" />
<circle r="5" cx="10.224377" cy="218.486659" />
<circle r="5" cx="251.447137" cy="205.802642" />
<circle r="5" cx="251.007856" cy="205.623994" />
<circle r="5" cx="934.027442" cy="172.752738" />
<circle r="5" cx="931.922041" cy="166.321406" />
<circle r="5" cx="932.107915" cy="166.142758" />
<circle r="5" cx="1012.37982" cy="39.12394" />
<circle r="5" cx="1013.004066" cy="38.945292" />
<circle r="5" cx="493.911024" cy="0" />
<circle r="5" cx="486.871683" cy="496.105848" />
<circle r="5" cx="474.601425" cy="491.460997" />
<circle r="5" cx="473.929246" cy="486.994794" />
<circle r="5" cx="475.62966" cy="486.994794" />
<circle r="5" cx="471.709275" cy="481.456702" />
<circle r="5" cx="473.055068" cy="480.563461" />
<circle r="5" cx="148.483042" cy="379.805918" />
<circle r="5" cx="100.523022" cy="378.912677" />
<circle r="5" cx="96.186965" cy="377.126196" />
<circle r="5" cx="96.241779" cy="376.7689" />
<circle r="5" cx="96.173173" cy="376.590251" />
<circle r="5" cx="96.557371" cy="376.590251" />
<circle r="5" cx="154.78193" cy="373.553233" />
<circle r="5" cx="140.743222" cy="373.017289" />
<circle r="5" cx="588.523813" cy="370.873511" />
<circle r="5" cx="118.781939" cy="370.337567" />
<circle r="5" cx="89.665846" cy="369.622974" />
<circle r="5" cx="86.893694" cy="368.908382" />
<circle r="5" cx="141.949147" cy="367.479197" />
<circle r="5" cx="123.909178" cy="366.050012" />
<circle r="5" cx="140.842809" cy="366.050012" />
<circle r="5" cx="143.531344" cy="365.514068" />
<circle r="5" cx="574.393551" cy="364.799475" />
<circle r="5" cx="124.525533" cy="364.084882" />
<circle r="5" cx="514.402968" cy="361.226513" />
<circle r="5" cx="151.453136" cy="360.869216" />
<circle r="5" cx="584.974633" cy="360.869216" />
<circle r="5" cx="151.58059" cy="360.690568" />
<circle r="5" cx="130.254914" cy="359.261383" />
<circle r="5" cx="139.878129" cy="357.65355" />
<circle r="5" cx="140.070821" cy="357.65355" />
<circle r="5" cx="147.263388" cy="357.296254" />
<circle r="5" cx="147.456092" cy="357.296254" />
<circle r="5" cx="127.98632" cy="356.224365" />
<circle r="5" cx="86.481203" cy="356.045717" />
<circle r="5" cx="147.195376" cy="356.045717" />
<circle r="5" cx="132.223883" cy="355.68842" />
<circle r="5" cx="130.100933" cy="355.152476" />
<circle r="5" cx="434.916772" cy="352.83005" />
<circle r="5" cx="634.169658" cy="352.294106" />
<circle r="5" cx="634.362521" cy="352.294106" />
<circle r="5" cx="432.734856" cy="351.400865" />
<circle r="5" cx="416.942245" cy="350.864921" />
<circle r="5" cx="417.079067" cy="350.686273" />
<circle r="5" cx="417.271981" cy="350.686273" />
<circle r="5" cx="417.464895" cy="350.686273" />
<circle r="5" cx="644.88754" cy="343.540348" />
<circle r="5" cx="442.804422" cy="343.3617" />
<circle r="5" cx="111.256909" cy="335.501182" />
<circle r="5" cx="640.280486" cy="333.536053" />
<circle r="5" cx="67.354264" cy="331.749572" />
<circle r="5" cx="105.94296" cy="330.320386" />
<circle r="5" cx="725.400191" cy="329.605794" />
<circle r="5" cx="725.849069" cy="329.06985" />
<circle r="5" cx="105.049161" cy="312.634222" />
<circle r="5" cx="43.30331" cy="307.632075" />
<circle r="5" cx="568.804798" cy="303.165871" />
<circle r="5" cx="111.978216" cy="302.629927" />
<circle r="5" cx="45.213287" cy="295.66265" />
<circle r="5" cx="720.222221" cy="288.695373" />
<circle r="5" cx="731.064885" cy="288.338077" />
<circle r="5" cx="724.591773" cy="288.159429" />
<circle r="5" cx="326.088123" cy="286.372947" />
<circle r="5" cx="735.140174" cy="285.479707" />
<circle r="5" cx="735.725454" cy="285.479707" />
<circle r="5" cx="832.99714" cy="284.050522" />
<circle r="5" cx="723.333326" cy="283.157281" />
<circle r="5" cx="732.777497" cy="279.762967" />
<circle r="5" cx="732.97279" cy="279.762967" />
<circle r="5" cx="653.251476" cy="276.904597" />
<circle r="5" cx="724.240485" cy="275.296763" />
<circle r="5" cx="729.640444" cy="274.939467" />
<circle r="5" cx="729.604153" cy="274.760819" />
<circle r="5" cx="838.870978" cy="273.68893" />
<circle r="5" cx="804.970121" cy="271.187857" />
<circle r="5" cx="805.165718" cy="271.187857" />
<circle r="5" cx="362.050836" cy="270.115968" />
<circle r="5" cx="346.160032" cy="269.222727" />
<circle r="5" cx="346.503422" cy="269.044079" />
<circle r="5" cx="346.455501" cy="268.865431" />
<circle r="5" cx="6.214655" cy="262.434098" />
<circle r="5" cx="690.096587" cy="258.325191" />
<circle r="5" cx="332.246942" cy="258.146543" />
<circle r="5" cx="690.061313" cy="258.146543" />
<circle r="5" cx="332.788132" cy="257.967895" />
<circle r="5" cx="811.959179" cy="256.717358" />
<circle r="5" cx="307.909794" cy="255.109525" />
<circle r="5" cx="339.643346" cy="254.930877" />
<circle r="5" cx="792.691221" cy="254.216284" />
<circle r="5" cx="345.092309" cy="244.747934" />
<circle r="5" cx="753.124505" cy="236.708768" />
<circle r="5" cx="753.261071" cy="236.351472" />
<circle r="5" cx="186.672971" cy="228.312306" />
<circle r="5" cx="592.122873" cy="221.523677" />
<circle r="5" cx="43.058518" cy="221.345029" />
<circle r="5" cx="932.121615" cy="166.321406" />
<circle r="5" cx="849.416772" cy="126.304226" />
<circle r="5" cx="1012.620403" cy="38.409347" />
<circle r="5" cx="1017.431855" cy="36.622866" />
<circle r="5" cx="474.126964" cy="507.717976" />
<circle r="5" cx="473.342472" cy="506.288791" />
<circle r="5" cx="473.530903" cy="506.288791" />
<circle r="5" cx="467.702358" cy="490.746404" />
<circle r="5" cx="473.668378" cy="486.816145" />
<circle r="5" cx="514.696473" cy="483.064535" />
<circle r="5" cx="474.192195" cy="476.275906" />
<circle r="5" cx="483.037982" cy="471.809703" />
<circle r="5" cx="95.734139" cy="376.947547" />
<circle r="5" cx="96.310404" cy="376.947547" />
<circle r="5" cx="96.365272" cy="376.590251" />
<circle r="5" cx="121.055691" cy="375.339714" />
<circle r="5" cx="119.23374" cy="370.516215" />
<circle r="5" cx="86.837353" cy="369.265678" />
<circle r="5" cx="140.940722" cy="368.908382" />
<circle r="5" cx="86.825729" cy="368.729734" />
<circle r="5" cx="137.391706" cy="367.121901" />
<circle r="5" cx="141.425933" cy="366.585956" />
<circle r="5" cx="133.915414" cy="366.050012" />
<circle r="5" cx="124.399376" cy="364.263531" />
<circle r="5" cx="152.501997" cy="364.263531" />
<circle r="5" cx="640.412002" cy="362.119753" />
<circle r="5" cx="640.887733" cy="361.762457" />
<circle r="5" cx="151.260545" cy="360.869216" />
<circle r="5" cx="386.413699" cy="360.869216" />
<circle r="5" cx="87.689114" cy="359.797327" />
<circle r="5" cx="417.982919" cy="359.618679" />
<circle r="5" cx="130.894396" cy="358.904087" />
<circle r="5" cx="455.843613" cy="358.725439" />
<circle r="5" cx="140.263514" cy="357.65355" />
<circle r="5" cx="140.456206" cy="357.65355" />
<circle r="5" cx="622.074659" cy="356.581661" />
<circle r="5" cx="434.531081" cy="352.83005" />
<circle r="5" cx="134.654707" cy="352.294106" />
<circle r="5" cx="415.648038" cy="351.043569" />
<circle r="5" cx="415.840941" cy="351.043569" />
<circle r="5" cx="417.819618" cy="349.971681" />
<circle r="5" cx="442.928847" cy="349.435736" />
<circle r="5" cx="119.471457" cy="348.721144" />
<circle r="5" cx="609.370406" cy="346.398718" />
<circle r="5" cx="448.436413" cy="342.825755" />
<circle r="5" cx="629.913635" cy="339.610089" />
<circle r="5" cx="616.383387" cy="338.895496" />
<circle r="5" cx="142.879242" cy="338.5382" />
<circle r="5" cx="143.072548" cy="338.5382" />
<circle r="5" cx="594.82321" cy="337.109015" />
<circle r="5" cx="630.552752" cy="334.78659" />
<circle r="5" cx="111.520626" cy="334.607941" />
<circle r="5" cx="106.785091" cy="329.96309" />
<circle r="5" cx="724.907529" cy="329.96309" />
<circle r="5" cx="105.560692" cy="329.784442" />
<circle r="5" cx="174.563264" cy="328.891201" />
<circle r="5" cx="439.086786" cy="328.355257" />
<circle r="5" cx="502.360713" cy="324.067702" />
<circle r="5" cx="502.504435" cy="323.889054" />
<circle r="5" cx="119.655557" cy="319.601499" />
<circle r="5" cx="668.383727" cy="313.706111" />
<circle r="5" cx="718.118233" cy="311.383685" />
<circle r="5" cx="121.204698" cy="311.026389" />
<circle r="5" cx="453.157545" cy="309.061259" />
<circle r="5" cx="701.784027" cy="307.989371" />
<circle r="5" cx="747.978796" cy="306.024241" />
<circle r="5" cx="111.962302" cy="303.165871" />
<circle r="5" cx="712.731026" cy="299.771557" />
<circle r="5" cx="417.566151" cy="298.52102" />
<circle r="5" cx="417.760793" cy="298.52102" />
<circle r="5" cx="717.664973" cy="298.342372" />
<circle r="5" cx="718.05427" cy="298.342372" />
<circle r="5" cx="45.602768" cy="295.66265" />
<circle r="5" cx="425.054768" cy="295.305354" />
<circle r="5" cx="821.463183" cy="294.769409" />
<circle r="5" cx="53.669309" cy="290.124558" />
<circle r="5" cx="730.869891" cy="288.338077" />
<circle r="5" cx="724.396773" cy="288.159429" />
<circle r="5" cx="735.492789" cy="285.301058" />
<circle r="5" cx="833.031421" cy="284.22917" />
<circle r="5" cx="63.253875" cy="283.157281" />
<circle r="5" cx="731.605737" cy="279.762967" />
<circle r="5" cx="239.398868" cy="278.869726" />
<circle r="5" cx="346.679167" cy="277.619189" />
<circle r="5" cx="350.684204" cy="277.261893" />
<circle r="5" cx="729.408684" cy="274.760819" />
<circle r="5" cx="838.903587" cy="273.867579" />
<circle r="5" cx="364.570331" cy="273.68893" />
<circle r="5" cx="592.835094" cy="272.438393" />
<circle r="5" cx="593.030645" cy="272.438393" />
<circle r="5" cx="805.299238" cy="271.902449" />
<circle r="5" cx="804.512277" cy="270.83056" />
<circle r="5" cx="804.707886" cy="270.83056" />
<circle r="5" cx="345.226314" cy="270.115968" />
<circle r="5" cx="357.759158" cy="263.505987" />
<circle r="5" cx="611.728985" cy="262.25545" />
<circle r="5" cx="848.785858" cy="262.25545" />
<circle r="5" cx="6.490061" cy="262.076802" />
<circle r="5" cx="743.741367" cy="255.824117" />
<circle r="5" cx="876.410912" cy="252.608451" />
<circle r="5" cx="346.271142" cy="251.715211" />
<circle r="5" cx="351.659282" cy="243.497397" />
<circle r="5" cx="352.198259" cy="241.710916" />
<circle r="5" cx="320.566934" cy="240.28173" />
<circle r="5" cx="355.89506" cy="233.493102" />
<circle r="5" cx="202.721165" cy="230.81338" />
<circle r="5" cx="43.255941" cy="221.345029" />
<circle r="5" cx="929.737077" cy="161.14061" />
<circle r="5" cx="863.301886" cy="126.304226" />
<circle r="5" cx="1012.790093" cy="39.12394" />
<circle r="5" cx="1012.825573" cy="38.409347" />
<circle r="5" cx="473.41691" cy="506.46744" />
<circle r="5" cx="497.605125" cy="473.238888" />
<circle r="5" cx="558.269522" cy="451.08652" />
<circle r="5" cx="96.604036" cy="380.699158" />
<circle r="5" cx="115.439179" cy="376.232955" />
<circle r="5" cx="91.500109" cy="371.409456" />
<circle r="5" cx="581.75789" cy="368.19379" />
<circle r="5" cx="574.586019" cy="364.799475" />
<circle r="5" cx="141.85462" cy="364.620827" />
<circle r="5" cx="502.792948" cy="362.298401" />
<circle r="5" cx="386.740631" cy="360.690568" />
<circle r="5" cx="386.875005" cy="360.51192" />
<circle r="5" cx="401.013532" cy="358.368142" />
<circle r="5" cx="616.80362" cy="358.368142" />
<circle r="5" cx="428.644592" cy="358.010846" />
<circle r="5" cx="382.670514" cy="357.65355" />
<circle r="5" cx="625.73646" cy="356.581661" />
<circle r="5" cx="622.602073" cy="356.403013" />
<circle r="5" cx="432.479554" cy="355.509772" />
<circle r="5" cx="432.100471" cy="351.222217" />
<circle r="5" cx="417.626681" cy="349.971681" />
<circle r="5" cx="608.697894" cy="346.756014" />
<circle r="5" cx="609.227173" cy="346.577366" />
<circle r="5" cx="111.447089" cy="336.037127" />
<circle r="5" cx="502.554494" cy="324.067702" />
<circle r="5" cx="502.698223" cy="323.889054" />
<circle r="5" cx="119.992584" cy="318.886906" />
<circle r="5" cx="121.01048" cy="311.026389" />
<circle r="5" cx="121.398915" cy="311.026389" />
<circle r="5" cx="121.338739" cy="310.847741" />
<circle r="5" cx="779.827582" cy="309.418555" />
<circle r="5" cx="701.742271" cy="307.810722" />
<circle r="5" cx="702.640059" cy="302.451279" />
<circle r="5" cx="712.536427" cy="299.771557" />
<circle r="5" cx="717.905016" cy="299.414261" />
<circle r="5" cx="717.670332" cy="299.235612" />
<circle r="5" cx="735.26217" cy="298.699668" />
<circle r="5" cx="601.221496" cy="298.163723" />
<circle r="5" cx="717.625048" cy="298.163723" />
<circle r="5" cx="818.795993" cy="296.019946" />
<circle r="5" cx="650.482613" cy="294.054817" />
<circle r="5" cx="757.197544" cy="292.982928" />
<circle r="5" cx="757.392378" cy="292.982928" />
<circle r="5" cx="325.893061" cy="286.372947" />
<circle r="5" cx="735.177781" cy="285.658355" />
<circle r="5" cx="195.26239" cy="285.301058" />
<circle r="5" cx="832.870595" cy="284.407818" />
<circle r="5" cx="729.912209" cy="281.013503" />
<circle r="5" cx="731.278954" cy="281.013503" />
<circle r="5" cx="732.814383" cy="279.941615" />
<circle r="5" cx="731.996324" cy="279.762967" />
<circle r="5" cx="732.935934" cy="279.584318" />
<circle r="5" cx="733.326533" cy="279.584318" />
<circle r="5" cx="350.879585" cy="277.261893" />
<circle r="5" cx="350.928606" cy="276.725948" />
<circle r="5" cx="351.026551" cy="276.368652" />
<circle r="5" cx="352.541205" cy="276.190004" />
<circle r="5" cx="729.531642" cy="274.403523" />
<circle r="5" cx="805.137115" cy="272.081097" />
<circle r="5" cx="804.712526" cy="271.902449" />
<circle r="5" cx="805.328" cy="271.009208" />
<circle r="5" cx="346.064144" cy="268.865431" />
<circle r="5" cx="694.195778" cy="265.11382" />
<circle r="5" cx="352.525538" cy="262.970043" />
<circle r="5" cx="351.890892" cy="262.791394" />
<circle r="5" cx="848.620595" cy="262.434098" />
<circle r="5" cx="310.918991" cy="259.039784" />
<circle r="5" cx="792.856116" cy="254.037636" />
<circle r="5" cx="348.345519" cy="253.68034" />
<circle r="5" cx="348.809569" cy="252.429803" />
<circle r="5" cx="349.45469" cy="249.571433" />
<circle r="5" cx="777.745988" cy="249.571433" />
<circle r="5" cx="777.942361" cy="249.571433" />
<circle r="5" cx="16.262005" cy="247.249007" />
<circle r="5" cx="347.102673" cy="244.926582" />
<circle r="5" cx="801.667508" cy="238.673897" />
<circle r="5" cx="753.321351" cy="236.708768" />
<circle r="5" cx="753.064211" cy="236.351472" />
<circle r="5" cx="753.457931" cy="236.351472" />
<circle r="5" cx="19.732453" cy="228.490954" />
<circle r="5" cx="112.638414" cy="205.802642" />
<circle r="5" cx="932.32119" cy="166.321406" />
<circle r="5" cx="931.908333" cy="166.142758" />
<circle r="5" cx="929.936861" cy="161.14061" />
<circle r="5" cx="741.532434" cy="143.811742" />
<circle r="5" cx="1021.067465" cy="33.943144" />
<circle r="5" cx="1021.488224" cy="33.764496" />
<circle r="5" cx="1021.498249" cy="33.585848" />
<circle r="5" cx="1021.703647" cy="33.585848" />
<circle r="5" cx="484.924986" cy="478.062388" />
<circle r="5" cx="94.700505" cy="371.230808" />
<circle r="5" cx="121.837483" cy="364.620827" />
<circle r="5" cx="151.724176" cy="363.191642" />
<circle r="5" cx="640.463013" cy="362.298401" />
<circle r="5" cx="138.665813" cy="359.082735" />
<circle r="5" cx="382.477821" cy="357.65355" />
<circle r="5" cx="575.117885" cy="357.474902" />
<circle r="5" cx="609.229733" cy="354.79518" />
<circle r="5" cx="583.099853" cy="351.758162" />
<circle r="5" cx="435.099958" cy="349.07844" />
<circle r="5" cx="650.875007" cy="343.540348" />
<circle r="5" cx="442.997572" cy="343.3617" />
<circle r="5" cx="722.907172" cy="324.960943" />
<circle r="5" cx="413.019255" cy="319.422851" />
<circle r="5" cx="121.264899" cy="311.205037" />
<circle r="5" cx="121.593133" cy="311.026389" />
<circle r="5" cx="121.532962" cy="310.847741" />
<circle r="5" cx="495.65738" cy="308.882611" />
<circle r="5" cx="665.360433" cy="307.632075" />
<circle r="5" cx="733.013181" cy="300.843445" />
<circle r="5" cx="534.856006" cy="300.486149" />
<circle r="5" cx="712.617065" cy="300.128853" />
<circle r="5" cx="717.710404" cy="299.414261" />
<circle r="5" cx="717.435659" cy="299.056964" />
<circle r="5" cx="602.953023" cy="298.878316" />
<circle r="5" cx="818.442985" cy="296.198594" />
<circle r="5" cx="818.723191" cy="295.66265" />
<circle r="5" cx="757.354453" cy="292.80428" />
<circle r="5" cx="650.458818" cy="292.268335" />
<circle r="5" cx="831.022285" cy="289.94591" />
<circle r="5" cx="733.631878" cy="283.871873" />
<circle r="5" cx="724.89472" cy="283.157281" />
<circle r="5" cx="723.025291" cy="282.621336" />
<circle r="5" cx="723.378117" cy="282.442689" />
<circle r="5" cx="732.265451" cy="280.120263" />
<circle r="5" cx="736.134261" cy="279.941615" />
<circle r="5" cx="239.25617" cy="279.048374" />
<circle r="5" cx="346.874535" cy="277.619189" />
<circle r="5" cx="354.055982" cy="276.011356" />
<circle r="5" cx="595.95166" cy="275.832708" />
<circle r="5" cx="729.37241" cy="274.582171" />
<circle r="5" cx="740.406925" cy="274.046226" />
<circle r="5" cx="740.762108" cy="273.867579" />
<circle r="5" cx="804.583913" cy="272.259745" />
<circle r="5" cx="804.745987" cy="272.081097" />
<circle r="5" cx="804.941551" cy="272.081097" />
<circle r="5" cx="804.316668" cy="270.83056" />
<circle r="5" cx="361.998001" cy="270.651912" />
<circle r="5" cx="362.146001" cy="270.473264" />
<circle r="5" cx="620.301456" cy="263.863283" />
<circle r="5" cx="620.497313" cy="263.863283" />
<circle r="5" cx="352.282683" cy="262.791394" />
<circle r="5" cx="3.551243" cy="262.076802" />
<circle r="5" cx="848.755237" cy="262.076802" />
<circle r="5" cx="342.152783" cy="257.789247" />
<circle r="5" cx="343.086547" cy="257.610599" />
<circle r="5" cx="317.805412" cy="256.181414" />
<circle r="5" cx="347.168173" cy="253.68034" />
<circle r="5" cx="345.021944" cy="252.965748" />
<circle r="5" cx="346.316908" cy="251.893859" />
<circle r="5" cx="30.823929" cy="251.715211" />
<circle r="5" cx="346.074846" cy="251.715211" />
<circle r="5" cx="346.467437" cy="251.715211" />
<circle r="5" cx="296.277031" cy="250.464674" />
<circle r="5" cx="688.071487" cy="249.928729" />
<circle r="5" cx="777.714835" cy="249.392785" />
<circle r="5" cx="777.911215" cy="249.392785" />
<circle r="5" cx="340.660661" cy="247.427656" />
<circle r="5" cx="344.895759" cy="244.747934" />
<circle r="5" cx="754.485029" cy="243.497397" />
<circle r="5" cx="753.512431" cy="242.425508" />
<circle r="5" cx="717.857564" cy="236.53012" />
<circle r="5" cx="752.897492" cy="236.53012" />
<circle r="5" cx="840.530258" cy="174.53922" />
<circle r="5" cx="931.894652" cy="165.96411" />
<circle r="5" cx="932.09424" cy="165.96411" />
<circle r="5" cx="742.351818" cy="143.99039" />
<circle r="5" cx="741.916046" cy="143.633094" />
<circle r="5" cx="1012.798921" cy="38.945292" />
<circle r="5" cx="1020.431498" cy="34.30044" />
<circle r="5" cx="1021.693614" cy="33.764496" />
<circle r="5" cx="511.645074" cy="485.386961" />
<circle r="5" cx="486.645928" cy="473.774833" />
<circle r="5" cx="495.580623" cy="469.487277" />
<circle r="5" cx="96.673107" cy="380.877806" />
<circle r="5" cx="115.315086" cy="376.411603" />
<circle r="5" cx="95.381616" cy="373.017289" />
<circle r="5" cx="588.577508" cy="371.052159" />
<circle r="5" cx="119.041452" cy="370.516215" />
<circle r="5" cx="86.361692" cy="368.015141" />
<circle r="5" cx="143.272972" cy="365.335419" />
<circle r="5" cx="142.822153" cy="365.156771" />
<circle r="5" cx="124.206893" cy="364.263531" />
<circle r="5" cx="124.59186" cy="364.263531" />
<circle r="5" cx="640.848104" cy="362.298401" />
<circle r="5" cx="421.866416" cy="362.119753" />
<circle r="5" cx="386.606289" cy="360.869216" />
<circle r="5" cx="455.787663" cy="358.546791" />
<circle r="5" cx="138.46414" cy="357.474902" />
<circle r="5" cx="138.656838" cy="357.474902" />
<circle r="5" cx="144.882455" cy="356.045717" />
<circle r="5" cx="633.412347" cy="353.723291" />
<circle r="5" cx="87.540858" cy="353.187347" />
<circle r="5" cx="141.019764" cy="352.83005" />
<circle r="5" cx="133.045311" cy="351.043569" />
<circle r="5" cx="442.735893" cy="349.435736" />
<circle r="5" cx="442.873709" cy="349.257088" />
<circle r="5" cx="119.27848" cy="348.721144" />
<circle r="5" cx="650.633392" cy="344.076292" />
<circle r="5" cx="56.368478" cy="342.468459" />
<circle r="5" cx="448.111979" cy="341.753867" />
<circle r="5" cx="594.872215" cy="337.287663" />
<circle r="5" cx="111.123756" cy="336.215775" />
<circle r="5" cx="111.253701" cy="336.037127" />
<circle r="5" cx="130.984242" cy="335.501182" />
<circle r="5" cx="184.947217" cy="332.106868" />
<circle r="5" cx="175.592023" cy="329.06985" />
<circle r="5" cx="174.635601" cy="328.533905" />
<circle r="5" cx="163.483712" cy="319.601499" />
<circle r="5" cx="120.370063" cy="319.422851" />
<circle r="5" cx="695.322018" cy="315.135296" />
<circle r="5" cx="121.070688" cy="311.205037" />
<circle r="5" cx="121.78735" cy="311.026389" />
<circle r="5" cx="495.94943" cy="308.525315" />
<circle r="5" cx="781.179904" cy="305.845593" />
<circle r="5" cx="780.946523" cy="305.666945" />
<circle r="5" cx="781.140921" cy="305.666945" />
<circle r="5" cx="531.435997" cy="301.558038" />
<circle r="5" cx="497.055414" cy="301.022094" />
<circle r="5" cx="712.811652" cy="300.128853" />
<circle r="5" cx="712.576734" cy="299.950205" />
<circle r="5" cx="712.925626" cy="299.771557" />
<circle r="5" cx="417.519825" cy="299.056964" />
<circle r="5" cx="735.106984" cy="298.878316" />
<circle r="5" cx="818.126537" cy="296.55589" />
<circle r="5" cx="818.284743" cy="296.377243" />
<circle r="5" cx="818.406536" cy="296.019946" />
<circle r="5" cx="424.908784" cy="295.484002" />
<circle r="5" cx="821.304593" cy="294.948057" />
<circle r="5" cx="726.304982" cy="288.874021" />
<circle r="5" cx="724.31683" cy="288.695373" />
<circle r="5" cx="731.026773" cy="288.159429" />
<circle r="5" cx="731.221773" cy="288.159429" />
<circle r="5" cx="724.163468" cy="287.98078" />
<circle r="5" cx="45.227108" cy="287.623484" />
<circle r="5" cx="325.748783" cy="286.551595" />
<circle r="5" cx="735.687889" cy="285.301058" />
<circle r="5" cx="109.981202" cy="282.799985" />
<circle r="5" cx="731.511306" cy="281.192152" />
<circle r="5" cx="732.38691" cy="279.762967" />
<circle r="5" cx="838.708086" cy="273.867579" />
<circle r="5" cx="347.763259" cy="271.545153" />
<circle r="5" cx="773.122372" cy="271.366504" />
<circle r="5" cx="360.919691" cy="271.009208" />
<circle r="5" cx="804.545591" cy="271.009208" />
<circle r="5" cx="361.95038" cy="270.473264" />
<circle r="5" cx="361.707153" cy="270.294616" />
<circle r="5" cx="342.65961" cy="265.649765" />
<circle r="5" cx="352.086788" cy="262.791394" />
<circle r="5" cx="5.764598" cy="262.25545" />
<circle r="5" cx="341.854013" cy="258.146543" />
<circle r="5" cx="342.050076" cy="258.146543" />
<circle r="5" cx="342.003381" cy="257.967895" />
<circle r="5" cx="332.54508" cy="257.789247" />
<circle r="5" cx="332.937231" cy="257.789247" />
<circle r="5" cx="342.843865" cy="257.431951" />
<circle r="5" cx="349.660609" cy="257.253303" />
<circle r="5" cx="743.904361" cy="255.64547" />
<circle r="5" cx="344.917657" cy="253.323044" />
<circle r="5" cx="348.79654" cy="253.144396" />
<circle r="5" cx="348.554448" cy="252.965748" />
<circle r="5" cx="348.508621" cy="252.787099" />
<circle r="5" cx="777.549614" cy="249.571433" />
<circle r="5" cx="777.880093" cy="249.214137" />
<circle r="5" cx="777.848995" cy="249.035489" />
<circle r="5" cx="753.488053" cy="236.53012" />
<circle r="5" cx="19.929606" cy="228.490954" />
<circle r="5" cx="189.07904" cy="212.769919" />
<circle r="5" cx="851.61473" cy="169.71572" />
<circle r="5" cx="741.732932" cy="143.811742" />
<circle r="5" cx="811.78952" cy="132.020965" />
<circle r="5" cx="1013.468067" cy="37.873403" />
<circle r="5" cx="1013.673262" cy="37.873403" />
<circle r="5" cx="1020.226133" cy="34.30044" />
<circle r="5" cx="482.848641" cy="471.809703" />
<circle r="5" cx="528.37172" cy="453.94489" />
<circle r="5" cx="159.129048" cy="372.838641" />
<circle r="5" cx="137.533929" cy="372.659992" />
<circle r="5" cx="128.68994" cy="368.551086" />
<circle r="5" cx="142.756253" cy="364.978123" />
<circle r="5" cx="141.920505" cy="364.799475" />
<circle r="5" cx="119.501031" cy="362.477049" />
<circle r="5" cx="641.182206" cy="362.119753" />
<circle r="5" cx="141.362872" cy="359.082735" />
<circle r="5" cx="400.820863" cy="358.368142" />
<circle r="5" cx="147.326436" cy="356.938958" />
<circle r="5" cx="138.97237" cy="356.224365" />
<circle r="5" cx="623.129544" cy="356.224365" />
<circle r="5" cx="139.100153" cy="356.045717" />
<circle r="5" cx="432.423328" cy="355.331124" />
<circle r="5" cx="144.104889" cy="351.758162" />
<circle r="5" cx="119.664435" cy="348.721144" />
<circle r="5" cx="131.177648" cy="335.501182" />
<circle r="5" cx="185.080013" cy="331.928219" />
<circle r="5" cx="105.996798" cy="331.570923" />
<circle r="5" cx="724.924967" cy="329.248498" />
<circle r="5" cx="175.785639" cy="329.06985" />
<circle r="5" cx="175.942524" cy="327.819313" />
<circle r="5" cx="452.327273" cy="314.420703" />
<circle r="5" cx="167.740205" cy="311.383685" />
<circle r="5" cx="167.234226" cy="311.026389" />
<circle r="5" cx="453.302203" cy="308.882611" />
<circle r="5" cx="701.589706" cy="307.989371" />
<circle r="5" cx="110.930304" cy="302.987223" />
<circle r="5" cx="712.771328" cy="299.950205" />
<circle r="5" cx="499.892739" cy="299.235612" />
<circle r="5" cx="818.479459" cy="296.377243" />
<circle r="5" cx="45.347259" cy="295.484002" />
<circle r="5" cx="731.416773" cy="288.159429" />
<circle r="5" cx="722.942978" cy="283.157281" />
<circle r="5" cx="330.186883" cy="280.834855" />
<circle r="5" cx="732.218147" cy="280.834855" />
<circle r="5" cx="733.168083" cy="279.762967" />
<circle r="5" cx="731.531961" cy="279.40567" />
<circle r="5" cx="347.704993" cy="277.797837" />
<circle r="5" cx="357.376807" cy="276.725948" />
<circle r="5" cx="740.797915" cy="274.046226" />
<circle r="5" cx="838.675471" cy="273.68893" />
<circle r="5" cx="352.329648" cy="262.970043" />
<circle r="5" cx="611.76739" cy="262.434098" />
<circle r="5" cx="611.9249" cy="262.25545" />
<circle r="5" cx="6.29414" cy="262.076802" />
<circle r="5" cx="337.948258" cy="261.183561" />
<circle r="5" cx="332.639068" cy="258.146543" />
<circle r="5" cx="342.348858" cy="257.789247" />
<circle r="5" cx="308.189213" cy="256.896006" />
<circle r="5" cx="184.197328" cy="256.717358" />
<circle r="5" cx="348.449929" cy="253.323044" />
<circle r="5" cx="348.417029" cy="252.429803" />
<circle r="5" cx="341.965531" cy="251.000618" />
<circle r="5" cx="777.683706" cy="249.214137" />
<circle r="5" cx="16.458464" cy="247.249007" />
<circle r="5" cx="855.288049" cy="236.708768" />
<circle r="5" cx="752.867351" cy="236.351472" />
<circle r="5" cx="760.581092" cy="229.384195" />
<circle r="5" cx="207.784125" cy="226.883121" />
<circle r="5" cx="9.920698" cy="218.129363" />
<circle r="5" cx="934.411496" cy="172.574091" />
<circle r="5" cx="462.355458" cy="157.031704" />
<circle r="5" cx="937.734385" cy="155.42387" />
<circle r="5" cx="742.334425" cy="143.811742" />
<circle r="5" cx="745.269381" cy="140.953372" />
<circle r="5" cx="1012.807777" cy="38.766643" />
<circle r="5" cx="1013.235913" cy="38.409347" />
<circle r="5" cx="1013.244871" cy="38.230699" />
<circle r="5" cx="1020.020769" cy="34.30044" />
<circle r="5" cx="473.173053" cy="480.384813" />
<circle r="5" cx="528.248179" cy="454.123538" />
<circle r="5" cx="95.679402" cy="377.304844" />
<circle r="5" cx="137.024237" cy="372.838641" />
<circle r="5" cx="130.413527" cy="368.015141" />
<circle r="5" cx="158.922999" cy="364.978123" />
<circle r="5" cx="129.361688" cy="359.975976" />
<circle r="5" cx="87.6734" cy="358.725439" />
<circle r="5" cx="136.783049" cy="354.973828" />
<circle r="5" cx="88.180014" cy="352.83005" />
<circle r="5" cx="134.84757" cy="352.294106" />
<circle r="5" cx="217.596014" cy="323.174462" />
<circle r="5" cx="749.119306" cy="311.91963" />
<circle r="5" cx="168.205313" cy="311.026389" />
<circle r="5" cx="712.422477" cy="300.128853" />
<circle r="5" cx="712.965921" cy="299.950205" />
<circle r="5" cx="713.120226" cy="299.771557" />
<circle r="5" cx="817.931827" cy="296.55589" />
<circle r="5" cx="818.321247" cy="296.55589" />
<circle r="5" cx="819.465814" cy="295.484002" />
<circle r="5" cx="729.688514" cy="291.911039" />
<circle r="5" cx="730.039614" cy="291.732391" />
<circle r="5" cx="730.674897" cy="288.338077" />
<circle r="5" cx="289.377285" cy="286.908891" />
<circle r="5" cx="339.648115" cy="286.730244" />
<circle r="5" cx="360.724089" cy="271.009208" />
<circle r="5" cx="361.807645" cy="269.93732" />
<circle r="5" cx="182.655556" cy="268.150838" />
<circle r="5" cx="777.518454" cy="249.392785" />
<circle r="5" cx="778.107595" cy="249.392785" />
<circle r="5" cx="690.334996" cy="245.283878" />
<circle r="5" cx="239.422559" cy="224.917992" />
<circle r="5" cx="813.330228" cy="175.43246" />
<circle r="5" cx="931.708751" cy="166.142758" />
<circle r="5" cx="936.782175" cy="156.138463" />
<circle r="5" cx="1012.816661" cy="38.587995" />
<circle r="5" cx="1023.971131" cy="37.15881" />
<circle r="5" cx="1024" cy="36.622866" />
<circle r="5" cx="1021.909046" cy="33.585848" />
<circle r="5" cx="524.468815" cy="487.709386" />
<circle r="5" cx="473.244174" cy="480.563461" />
<circle r="5" cx="510.655348" cy="459.840279" />
<circle r="5" cx="141.041111" cy="366.585956" />
<circle r="5" cx="151.531659" cy="363.191642" />
<circle r="5" cx="66.77368" cy="331.749572" />
<circle r="5" cx="120.876477" cy="311.205037" />
<circle r="5" cx="121.981567" cy="311.026389" />
<circle r="5" cx="121.727186" cy="310.847741" />
<circle r="5" cx="780.985511" cy="305.845593" />
<circle r="5" cx="665.86919" cy="304.059112" />
<circle r="5" cx="818.954315" cy="295.841298" />
<circle r="5" cx="163.525383" cy="294.769409" />
<circle r="5" cx="731.259878" cy="288.338077" />
<circle r="5" cx="833.192283" cy="284.050522" />
<circle r="5" cx="733.594471" cy="283.693225" />
<circle r="5" cx="724.932332" cy="283.335929" />
<circle r="5" cx="635.928839" cy="282.442689" />
<circle r="5" cx="731.474203" cy="281.013503" />
<circle r="5" cx="732.255201" cy="281.013503" />
<circle r="5" cx="736.366345" cy="280.120263" />
<circle r="5" cx="732.740634" cy="279.584318" />
<circle r="5" cx="731.336655" cy="279.40567" />
<circle r="5" cx="360.771816" cy="271.187857" />
<circle r="5" cx="694.391591" cy="265.11382" />
<circle r="5" cx="802.293575" cy="260.826265" />
<circle r="5" cx="184.589556" cy="256.717358" />
<circle r="5" cx="743.57841" cy="256.002766" />
<circle r="5" cx="778.138735" cy="249.571433" />
<circle r="5" cx="10.460303" cy="217.950715" />
<circle r="5" cx="17.27069" cy="214.913697" />
<circle r="5" cx="719.747794" cy="203.12292" />
<circle r="5" cx="719.945913" cy="203.12292" />
<circle r="5" cx="932.307496" cy="166.142758" />
<circle r="5" cx="940.487667" cy="160.604666" />
<circle r="5" cx="936.794211" cy="156.317111" />
<circle r="5" cx="1012.977642" cy="39.481236" />
<circle r="5" cx="1013.218083" cy="38.766643" />
<circle r="5" cx="1013.226984" cy="38.587995" />
<circle r="5" cx="1013.441084" cy="38.409347" />
<circle r="5" cx="1022.124523" cy="33.407199" />
<circle r="5" cx="464.245459" cy="489.674516" />
<circle r="5" cx="519.488772" cy="466.628907" />
<circle r="5" cx="143.207065" cy="365.156771" />
<circle r="5" cx="640.259102" cy="361.583809" />
<circle r="5" cx="87.806979" cy="359.082735" />
<circle r="5" cx="87.932833" cy="358.904087" />
<circle r="5" cx="136.018155" cy="319.244203" />
<circle r="5" cx="122.041745" cy="311.205037" />
<circle r="5" cx="168.264057" cy="311.205037" />
<circle r="5" cx="731.562489" cy="290.660502" />
<circle r="5" cx="325.697999" cy="286.372947" />
<circle r="5" cx="732.292278" cy="281.192152" />
<circle r="5" cx="361.754759" cy="270.473264" />
<circle r="5" cx="697.119569" cy="258.146543" />
<circle r="5" cx="185.333063" cy="257.253303" />
<circle r="5" cx="183.856846" cy="256.896006" />
<circle r="5" cx="687.875126" cy="249.928729" />
<circle r="5" cx="202.524099" cy="230.81338" />
<circle r="5" cx="188.881292" cy="212.769919" />
<circle r="5" cx="719.549676" cy="203.12292" />
<circle r="5" cx="719.721218" cy="202.944272" />
<circle r="5" cx="934.226757" cy="172.752738" />
<circle r="5" cx="851.814168" cy="169.71572" />
<circle r="5" cx="939.081377" cy="163.284388" />
<circle r="5" cx="940.300437" cy="160.783314" />
<circle r="5" cx="1012.76378" cy="39.659884" />
<circle r="5" cx="1012.593776" cy="38.945292" />
<circle r="5" cx="1013.209211" cy="38.945292" />
<circle r="5" cx="1012.602623" cy="38.766643" />
<circle r="5" cx="1013.01293" cy="38.766643" />
<circle r="5" cx="1013.423236" cy="38.766643" />
<circle r="5" cx="1013.021822" cy="38.587995" />
<circle r="5" cx="1013.030743" cy="38.409347" />
<circle r="5" cx="1012.834514" cy="38.230699" />
<circle r="5" cx="1013.039693" cy="38.230699" />
<circle r="5" cx="1009.150117" cy="38.052051" />
<circle r="5" cx="1023.765901" cy="37.15881" />
<circle r="5" cx="1021.683609" cy="33.943144" />
<circle r="5" cx="528.058353" cy="454.123538" />
<circle r="5" cx="516.079697" cy="453.05165" />
<circle r="5" cx="151.982115" cy="363.37029" />
<circle r="5" cx="121.61897" cy="362.477049" />
<circle r="5" cx="131.308304" cy="335.322534" />
<circle r="5" cx="106.460791" cy="330.141738" />
<circle r="5" cx="174.369642" cy="328.891201" />
<circle r="5" cx="248.680646" cy="328.176609" />
<circle r="5" cx="819.234745" cy="295.305354" />
<circle r="5" cx="361.90278" cy="270.294616" />
<circle r="5" cx="184.393442" cy="256.717358" />
<circle r="5" cx="294.04453" cy="253.144396" />
<circle r="5" cx="777.35324" cy="249.571433" />
<circle r="5" cx="10.095048" cy="219.3799" />
<circle r="5" cx="10.262753" cy="217.950715" />
<circle r="5" cx="1003.098089" cy="94.147563" />
<circle r="5" cx="1003.300715" cy="94.147563" />
<circle r="5" cx="1012.558669" cy="39.659884" />
<circle r="5" cx="1012.772523" cy="39.481236" />
<circle r="5" cx="1013.19155" cy="39.302588" />
<circle r="5" cx="1012.388631" cy="38.945292" />
<circle r="5" cx="1012.611499" cy="38.587995" />
<circle r="5" cx="1013.057676" cy="37.873403" />
<circle r="5" cx="1010.965802" cy="34.657736" />
<circle r="5" cx="1011.376497" cy="34.657736" />
<circle r="5" cx="1010.769897" cy="34.479088" />
<circle r="5" cx="1021.673632" cy="34.121792" />
<circle r="5" cx="1021.272846" cy="33.943144" />
<circle r="5" cx="1021.899004" cy="33.764496" />
<circle r="5" cx="1022.114444" cy="33.585848" />
</svg>